{
  "accessors": [
    {
      "bufferView": 2,
      "componentType": 5126,
      "count": 555,
      "max": [
        1.0,
        1.0,
        1.0000001192092896
      ],
      "min": [
        -1.000000238418579,
        -1.0,
        -1.0000004768371582
      ],
      "type": "VEC3"
    },
    {
      "bufferView": 2,
      "byteOffset": 6660,
      "componentType": 5126,
      "count": 555,
      "max": [
        0.9999998807907104,
        1.0,
        0.9999998807907104
      ],
      "min": [
        -0.9999998807907104,
        -1.0,
        -0.9999998807907104
      ],
      "type": "VEC3"
    },
    {
      "bufferView": 1,
      "componentType": 5126,
      "count": 555,
      "max": [
        0.65625,
        1.0
      ],
      "min": [
        0.3437499701976776,
        -7.450580596923828e-08
      ],
      "type": "VEC2"
    },
    {
      "bufferView": 0,
      "componentType": 5125,
      "count": 3000,
      "type": "SCALAR"
    },
    {
      "bufferView": 2,
      "byteOffset": 13320,
      "componentType": 5126,
      "count": 248,
      "max": [
        1.0,
        1.0,
        1.0000001192092896
      ],
      "min": [
        -1.000000238418579,
        -1.0,
        -1.0000004768371582
      ],
      "type": "VEC3"
    },
    {
      "bufferView": 2,
      "byteOffset": 16296,
      "componentType": 5126,
      "count": 248,
      "max": [
        1.0,
        1.0,
        1.0
      ],
      "min": [
        -1.0,
        -1.0,
        -1.0
      ],
      "type": "VEC3"
    },
    {
      "bufferView": 1,
      "byteOffset": 4440,
      "componentType": 5126,
      "count": 248,
      "max": [
        0.65625,
        1.0
      ],
      "min": [
        0.3437499701976776,
        -7.450580596923828e-08
      ],
      "type": "VEC2"
    },
    {
      "bufferView": 0,
      "byteOffset": 12000,
      "componentType": 5125,
      "count": 1200,
      "type": "SCALAR"
    },
    {
      "bufferView": 2,
      "byteOffset": 19272,
      "componentType": 5126,
      "count": 576,
      "max": [
        0.9999998807907104,
        1.0,
        1.0000001192092896
      ],
      "min": [
        -1.000000238418579,
        -1.0,
        -1.0000004768371582
      ],
      "type": "VEC3"
    },
    {
      "bufferView": 2,
      "byteOffset": 26184,
      "componentType": 5126,
      "count": 576,
      "max": [
        0.999980628490448,
        1.0,
        0.999980628490448
      ],
      "min": [
        -0.999980628490448,
        -1.0,
        -0.999980628490448
      ],
      "type": "VEC3"
    },
    {
      "bufferView": 1,
      "byteOffset": 6424,
      "componentType": 5126,
      "count": 576,
      "max": [
        0.65625,
        1.0
      ],
      "min": [
        0.3437499701976776,
        -7.450580596923828e-08
      ],
      "type": "VEC2"
    },
    {
      "bufferView": 0,
      "byteOffset": 16800,
      "componentType": 5125,
      "count": 3120,
      "type": "SCALAR"
    },
    {
      "bufferView": 2,
      "byteOffset": 33096,
      "componentType": 5126,
      "count": 1771,
      "max": [
        0.9616082906723022,
        0.7164254784584045,
        0.9530555009841919
      ],
      "min": [
        -0.9725309610366821,
        -2.450148105621338,
        -0.9514951109886169
      ],
      "type": "VEC3"
    },
    {
      "bufferView": 2,
      "byteOffset": 54348,
      "componentType": 5126,
      "count": 1771,
      "max": [
        0.9999403953552246,
        0.9878588318824768,
        0.9998291730880737
      ],
      "min": [
        -0.9997715950012207,
        -0.9994514584541321,
        -0.9999768733978271
      ],
      "type": "VEC3"
    },
    {
      "bufferView": 1,
      "byteOffset": 11032,
      "componentType": 5126,
      "count": 1771,
      "max": [
        0.65625,
        0.9923526048660278
      ],
      "min": [
        0.34375,
        0.007647395133972168
      ],
      "type": "VEC2"
    },
    {
      "bufferView": 0,
      "byteOffset": 29280,
      "componentType": 5125,
      "count": 9600,
      "type": "SCALAR"
    },
    {
      "bufferView": 2,
      "byteOffset": 75600,
      "componentType": 5126,
      "count": 2035,
      "max": [
        0.48363494873046875,
        1.000000238418579,
        0.45655107498168945
      ],
      "min": [
        -0.4253654479980469,
        -1.000000238418579,
        -0.45655113458633423
      ],
      "type": "VEC3"
    },
    {
      "bufferView": 2,
      "byteOffset": 100020,
      "componentType": 5126,
      "count": 2035,
      "max": [
        1.0,
        1.0,
        0.9999985694885254
      ],
      "min": [
        -1.0,
        -1.0,
        -0.9999985694885254
      ],
      "type": "VEC3"
    },
    {
      "bufferView": 1,
      "byteOffset": 25200,
      "componentType": 5126,
      "count": 2035,
      "max": [
        0.65625,
        0.9790664911270142
      ],
      "min": [
        0.375,
        0.02093350887298584
      ],
      "type": "VEC2"
    },
    {
      "bufferView": 0,
      "byteOffset": 67680,
      "componentType": 5125,
      "count": 11520,
      "type": "SCALAR"
    },
    {
      "bufferView": 2,
      "byteOffset": 124440,
      "componentType": 5126,
      "count": 2035,
      "max": [
        0.48363494873046875,
        1.000000238418579,
        0.45655107498168945
      ],
      "min": [
        -0.4253654479980469,
        -1.000000238418579,
        -0.45655113458633423
      ],
      "type": "VEC3"
    },
    {
      "bufferView": 2,
      "byteOffset": 148860,
      "componentType": 5126,
      "count": 2035,
      "max": [
        1.0,
        1.0,
        0.9999985694885254
      ],
      "min": [
        -1.0,
        -1.0,
        -0.9999985694885254
      ],
      "type": "VEC3"
    },
    {
      "bufferView": 1,
      "byteOffset": 41480,
      "componentType": 5126,
      "count": 2035,
      "max": [
        0.65625,
        0.9790664911270142
      ],
      "min": [
        0.375,
        0.02093350887298584
      ],
      "type": "VEC2"
    },
    {
      "bufferView": 0,
      "byteOffset": 113760,
      "componentType": 5125,
      "count": 11520,
      "type": "SCALAR"
    },
    {
      "bufferView": 2,
      "byteOffset": 173280,
      "componentType": 5126,
      "count": 2035,
      "max": [
        0.48363494873046875,
        1.000000238418579,
        0.45655107498168945
      ],
      "min": [
        -0.4253654479980469,
        -1.000000238418579,
        -0.45655113458633423
      ],
      "type": "VEC3"
    },
    {
      "bufferView": 2,
      "byteOffset": 197700,
      "componentType": 5126,
      "count": 2035,
      "max": [
        1.0,
        1.0,
        0.9999985694885254
      ],
      "min": [
        -1.0,
        -1.0,
        -0.9999985694885254
      ],
      "type": "VEC3"
    },
    {
      "bufferView": 1,
      "byteOffset": 57760,
      "componentType": 5126,
      "count": 2035,
      "max": [
        0.65625,
        0.9790664911270142
      ],
      "min": [
        0.375,
        0.02093350887298584
      ],
      "type": "VEC2"
    },
    {
      "bufferView": 0,
      "byteOffset": 159840,
      "componentType": 5125,
      "count": 11520,
      "type": "SCALAR"
    },
    {
      "bufferView": 2,
      "byteOffset": 222120,
      "componentType": 5126,
      "count": 2035,
      "max": [
        0.48363494873046875,
        1.000000238418579,
        0.45655107498168945
      ],
      "min": [
        -0.4253654479980469,
        -1.000000238418579,
        -0.45655113458633423
      ],
      "type": "VEC3"
    },
    {
      "bufferView": 2,
      "byteOffset": 246540,
      "componentType": 5126,
      "count": 2035,
      "max": [
        1.0,
        1.0,
        0.9999985694885254
      ],
      "min": [
        -1.0,
        -1.0,
        -0.9999985694885254
      ],
      "type": "VEC3"
    },
    {
      "bufferView": 1,
      "byteOffset": 74040,
      "componentType": 5126,
      "count": 2035,
      "max": [
        0.65625,
        0.9790664911270142
      ],
      "min": [
        0.375,
        0.02093350887298584
      ],
      "type": "VEC2"
    },
    {
      "bufferView": 0,
      "byteOffset": 205920,
      "componentType": 5125,
      "count": 11520,
      "type": "SCALAR"
    },
    {
      "bufferView": 2,
      "byteOffset": 270960,
      "componentType": 5126,
      "count": 412,
      "max": [
        1.0,
        1.0,
        1.0000001192092896
      ],
      "min": [
        -1.000000238418579,
        -0.9999997615814209,
        -1.0000004768371582
      ],
      "type": "VEC3"
    },
    {
      "bufferView": 2,
      "byteOffset": 275904,
      "componentType": 5126,
      "count": 412,
      "max": [
        0.9999909400939941,
        1.0,
        0.9999909400939941
      ],
      "min": [
        -0.9999909400939941,
        -1.0,
        -0.9999909400939941
      ],
      "type": "VEC3"
    },
    {
      "bufferView": 1,
      "byteOffset": 90320,
      "componentType": 5126,
      "count": 412,
      "max": [
        0.65625,
        1.0
      ],
      "min": [
        0.3437499701976776,
        -7.450580596923828e-08
      ],
      "type": "VEC2"
    },
    {
      "bufferView": 0,
      "byteOffset": 252000,
      "componentType": 5125,
      "count": 2160,
      "type": "SCALAR"
    },
    {
      "bufferView": 2,
      "byteOffset": 280848,
      "componentType": 5126,
      "count": 1050,
      "max": [
        0.5000000596046448,
        0.5,
        0.5
      ],
      "min": [
        -0.5,
        -10.40807819366455,
        -0.5
      ],
      "type": "VEC3"
    },
    {
      "bufferView": 2,
      "byteOffset": 293448,
      "componentType": 5126,
      "count": 1050,
      "max": [
        1.0,
        1.0,
        1.0
      ],
      "min": [
        -1.0,
        -1.0,
        -1.0
      ],
      "type": "VEC3"
    },
    {
      "bufferView": 1,
      "byteOffset": 93616,
      "componentType": 5126,
      "count": 1050,
      "max": [
        0.875,
        0.9999995231628418
      ],
      "min": [
        0.125,
        0.0
      ],
      "type": "VEC2"
    },
    {
      "bufferView": 0,
      "byteOffset": 260640,
      "componentType": 5125,
      "count": 5280,
      "type": "SCALAR"
    }
  ],
  "asset": {
    "extras": {
      "author": "alex.yefremov (https://sketchfab.com/alex.yefremov)",
      "license": "CC-BY-4.0 (http://creativecommons.org/licenses/by/4.0/)",
      "source": "https://sketchfab.com/3d-models/burger-bd30d8d9da2647e296820e43fd361f67",
      "title": "burger"
    },
    "generator": "Sketchfab-14.10.0",
    "version": "2.0"
  },
  "bufferViews": [
    {
      "buffer": 0,
      "byteLength": 281760,
      "name": "floatBufferViews",
      "target": 34963
    },
    {
      "buffer": 0,
      "byteLength": 102016,
      "byteOffset": 281760,
      "byteStride": 8,
      "name": "floatBufferViews",
      "target": 34962
    },
    {
      "buffer": 0,
      "byteLength": 306048,
      "byteOffset": 383776,
      "byteStride": 12,
      "name": "floatBufferViews",
      "target": 34962
    }
  ],
  "buffers": [
    {
      "byteLength": 689824,
      "uri": "scene.bin"
    }
  ],
  "materials": [
    {
      "doubleSided": true,
      "name": "lambert4",
      "pbrMetallicRoughness": {
        "baseColorFactor": [
          0.940665205793594,
          0.5540382840941039,
          0.05797220192330997,
          1.0
        ],
        "metallicFactor": 0.0,
        "roughnessFactor": 0.6
      }
    },
    {
      "doubleSided": true,
      "name": "lambert8",
      "pbrMetallicRoughness": {
        "baseColorFactor": [
          1.0,
          1.0,
          0.0,
          1.0
        ],
        "metallicFactor": 0.0,
        "roughnessFactor": 0.6
      }
    },
    {
      "doubleSided": true,
      "name": "lambert7",
      "pbrMetallicRoughness": {
        "baseColorFactor": [
          0.0684,
          0.024358182491475314,
          0.0,
          1.0
        ],
        "metallicFactor": 0.0,
        "roughnessFactor": 0.6
      }
    },
    {
      "doubleSided": true,
      "name": "lambert6",
      "pbrMetallicRoughness": {
        "baseColorFactor": [
          1.0,
          0.0,
          0.0,
          1.0
        ],
        "metallicFactor": 0.0,
        "roughnessFactor": 0.6
      }
    },
    {
      "doubleSided": true,
      "name": "lambert5",
      "pbrMetallicRoughness": {
        "baseColorFactor": [
          0.0654,
          0.1934,
          0.0151,
          1.0
        ],
        "metallicFactor": 0.0,
        "roughnessFactor": 0.6
      }
    },
    {
      "doubleSided": true,
      "name": "lambert1",
      "pbrMetallicRoughness": {
        "baseColorFactor": [
          1.0,
          0.646,
          0.0,
          1.0
        ],
        "metallicFactor": 0.0,
        "roughnessFactor": 0.6
      }
    }
  ],
  "meshes": [
    {
      "name": "pCylinder1_lambert4_0",
      "primitives": [
        {
          "attributes": {
            "NORMAL": 1,
            "POSITION": 0,
            "TEXCOORD_0": 2
          },
          "indices": 3,
          "material": 0,
          "mode": 4
        }
      ]
    },
    {
      "name": "pCylinder2_lambert8_0",
      "primitives": [
        {
          "attributes": {
            "NORMAL": 5,
            "POSITION": 4,
            "TEXCOORD_0": 6
          },
          "indices": 7,
          "material": 1,
          "mode": 4
        }
      ]
    },
    {
      "name": "pCylinder3_lambert7_0",
      "primitives": [
        {
          "attributes": {
            "NORMAL": 9,
            "POSITION": 8,
            "TEXCOORD_0": 10
          },
          "indices": 11,
          "material": 2,
          "mode": 4
        }
      ]
    },
    {
      "name": "pCylinder4_lambert6_0",
      "primitives": [
        {
          "attributes": {
            "NORMAL": 13,
            "POSITION": 12,
            "TEXCOORD_0": 14
          },
          "indices": 15,
          "material": 3,
          "mode": 4
        }
      ]
    },
    {
      "name": "pCylinder5_lambert5_0",
      "primitives": [
        {
          "attributes": {
            "NORMAL": 17,
            "POSITION": 16,
            "TEXCOORD_0": 18
          },
          "indices": 19,
          "material": 4,
          "mode": 4
        }
      ]
    },
    {
      "name": "pCylinder6_lambert5_0",
      "primitives": [
        {
          "attributes": {
            "NORMAL": 21,
            "POSITION": 20,
            "TEXCOORD_0": 22
          },
          "indices": 23,
          "material": 4,
          "mode": 4
        }
      ]
    },
    {
      "name": "pCylinder7_lambert5_0",
      "primitives": [
        {
          "attributes": {
            "NORMAL": 25,
            "POSITION": 24,
            "TEXCOORD_0": 26
          },
          "indices": 27,
          "material": 4,
          "mode": 4
        }
      ]
    },
    {
      "name": "pCylinder8_lambert5_0",
      "primitives": [
        {
          "attributes": {
            "NORMAL": 29,
            "POSITION": 28,
            "TEXCOORD_0": 30
          },
          "indices": 31,
          "material": 4,
          "mode": 4
        }
      ]
    },
    {
      "name": "pCylinder9_lambert4_0",
      "primitives": [
        {
          "attributes": {
            "NORMAL": 33,
            "POSITION": 32,
            "TEXCOORD_0": 34
          },
          "indices": 35,
          "material": 0,
          "mode": 4
        }
      ]
    },
    {
      "name": "pCube1_lambert1_0",
      "primitives": [
        {
          "attributes": {
            "NORMAL": 37,
            "POSITION": 36,
            "TEXCOORD_0": 38
          },
          "indices": 39,
          "material": 5,
          "mode": 4
        }
      ]
    }
  ],
  "nodes": [
    {
      "children": [
        1
      ],
      "matrix": [
        1.0,
        0.0,
        0.0,
        0.0,
        0.0,
        2.220446049250313e-16,
        -1.0,
        0.0,
        0.0,
        1.0,
        2.220446049250313e-16,
        0.0,
        0.0,
        0.0,
        0.0,
        1.0
      ],
      "name": "Sketchfab_model"
    },
    {
      "children": [
        2
      ],
      "matrix": [
        0.009999999776482582,
        0.0,
        0.0,
        0.0,
        0.0,
        0.0,
        0.009999999776482582,
        0.0,
        0.0,
        -0.009999999776482582,
        0.0,
        0.0,
        0.0,
        0.0,
        0.0,
        1.0
      ],
      "name": "10e7ca3f77564628b1ec1b0d204682d4.fbx"
    },
    {
      "children": [
        3,
        5,
        7,
        9,
        11,
        13,
        15,
        17,
        19,
        21
      ],
      "name": "RootNode"
    },
    {
      "children": [
        4
      ],
      "matrix": [
        17.16997528076172,
        0.0,
        0.0,
        0.0,
        0.0,
        2.816542387008667,
        0.0,
        0.0,
        0.0,
        0.0,
        17.16997528076172,
        0.0,
        0.0,
        0.0,
        0.0,
        1.0
      ],
      "name": "pCylinder1"
    },
    {
      "mesh": 0,
      "name": "pCylinder1_lambert4_0"
    },
    {
      "children": [
        6
      ],
      "matrix": [
        16.930879592895508,
        0.0,
        0.0,
        0.0,
        0.0,
        0.6262786388397217,
        0.0,
        0.0,
        0.0,
        0.0,
        16.930879592895508,
        0.0,
        0.0,
        2.565014362335205,
        0.0,
        1.0
      ],
      "name": "pCylinder2"
    },
    {
      "mesh": 1,
      "name": "pCylinder2_lambert8_0"
    },
    {
      "children": [
        8
      ],
      "matrix": [
        15.683485984802246,
        0.0,
        0.0,
        0.0,
        0.0,
        1.4751399755477905,
        0.0,
        0.0,
        0.0,
        0.0,
        15.683485984802246,
        0.0,
        0.0,
        4.021717071533203,
        0.0,
        1.0
      ],
      "name": "pCylinder3"
    },
    {
      "mesh": 2,
      "name": "pCylinder3_lambert7_0"
    },
    {
      "children": [
        10
      ],
      "matrix": [
        15.553159713745117,
        0.0,
        0.0,
        0.0,
        0.0,
        0.5540513396263123,
        0.0,
        0.0,
        0.0,
        0.0,
        15.553159713745117,
        0.0,
        0.0030157496221363544,
        5.906353950500488,
        -0.00043082371121272445,
        1.0
      ],
      "name": "pCylinder4"
    },
    {
      "mesh": 3,
      "name": "pCylinder4_lambert6_0"
    },
    {
      "children": [
        12
      ],
      "matrix": [
        8.754222869873047,
        0.0,
        0.0,
        0.0,
        0.0,
        0.6144069648691092,
        0.03194408733560586,
        0.0,
        0.0,
        -0.45453336238941305,
        8.742414853910976,
        0.0,
        0.0,
        6.071591377258301,
        10.097691535949707,
        1.0
      ],
      "name": "pCylinder5"
    },
    {
      "mesh": 4,
      "name": "pCylinder5_lambert5_0"
    },
    {
      "children": [
        14
      ],
      "matrix": [
        8.746484555805596,
        0.36787363857187716,
        -0.009744562912272822,
        0.0,
        -0.025862809277592463,
        0.6144774392342754,
        -0.016276822900482886,
        0.0,
        4.7456737269693224e-18,
        0.231808301345061,
        8.751153236393236,
        0.0,
        -8.370525360107422,
        6.110073566436768,
        0.13250422477722168,
        1.0
      ],
      "name": "pCylinder6"
    },
    {
      "mesh": 5,
      "name": "pCylinder6_lambert5_0"
    },
    {
      "children": [
        16
      ],
      "matrix": [
        8.73959867934222,
        -0.5056219904899945,
        0.013393363317050178,
        0.0,
        0.035547002382026835,
        0.6139936773629656,
        -0.016264008587372994,
        0.0,
        1.708442541708956e-17,
        0.23180830134506109,
        8.751153236393236,
        0.0,
        9.08533000946045,
        6.070686340332031,
        0.13250422477722168,
        1.0
      ],
      "name": "pCylinder7"
    },
    {
      "mesh": 6,
      "name": "pCylinder7_lambert5_0"
    },
    {
      "children": [
        18
      ],
      "matrix": [
        8.74911746855027,
        0.17528983915316215,
        -0.24214675138526795,
        0.0,
        -0.012922767758471752,
        0.6147100124589792,
        -0.021930477685581568,
        0.0,
        0.23569110011973166,
        0.31695361150129087,
        8.745307780112084,
        0.0,
        0.7173219323158264,
        6.2513322830200195,
        -9.809741973876953,
        1.0
      ],
      "name": "pCylinder8"
    },
    {
      "mesh": 7,
      "name": "pCylinder8_lambert5_0"
    },
    {
      "children": [
        20
      ],
      "matrix": [
        17.103233337402344,
        0.0,
        0.0,
        0.0,
        0.0,
        3.0866661071777344,
        0.0,
        0.0,
        0.0,
        0.0,
        17.103233337402344,
        0.0,
        0.0,
        9.108173370361328,
        0.0,
        1.0
      ],
      "name": "pCylinder9"
    },
    {
      "mesh": 8,
      "name": "pCylinder9_lambert4_0"
    },
    {
      "children": [
        22
      ],
      "matrix": [
        28.28680419921875,
        0.0,
        0.0,
        0.0,
        0.0,
        0.4620935916900635,
        0.0,
        0.0,
        0.0,
        0.0,
        28.28680419921875,
        0.0,
        0.0,
        3.0382769107818604,
        0.0,
        1.0
      ],
      "name": "pCube1"
    },
    {
      "mesh": 9,
      "name": "pCube1_lambert1_0"
    }
  ],
  "scene": 0,
  "scenes": [
    {
      "name": "Sketchfab_Scene",
      "nodes": [
        0
      ]
    }
  ]
}
